Coordinates
version=1
nRows=16
nColumns=36
inDegrees=yes

Units are S.I. units (second, meters, Newtons, ...)
If the header above contains a line with 'inDegrees', this indicates whether rotational values are in degrees (yes) or radians (no).

endheader
time	pelvis_tilt	pelvis_list	pelvis_rotation	pelvis_tx	pelvis_ty	pelvis_tz	hip_flexion_r	hip_adduction_r	hip_rotation_r	knee_angle_r	knee_angle_r_beta	ankle_angle_r	subtalar_angle_r	mtp_angle_r	hip_flexion_l	hip_adduction_l	hip_rotation_l	knee_angle_l	knee_angle_l_beta	ankle_angle_l	subtalar_angle_l	mtp_angle_l	lumbar_extension	lumbar_bending	lumbar_rotation	arm_flex_r	arm_add_r	arm_rot_r	elbow_flex_r	pro_sup_r	arm_flex_l	arm_add_l	arm_rot_l	elbow_flex_l	pro_sup_l
      0.00000000	     -0.41079800	     -0.64929463	     -1.51598271	     -0.95111032	      1.26395064	     -0.03432861	     -4.94348101	      1.26872261	     -1.71455855	      2.50319289	      0.04368896	      0.36208905	    -12.53341237	     -6.75265015	     -4.55575055	     -3.85569054	     -3.91499164	      4.39965777	      0.07678851	      7.48738596	      0.54546439	     -6.75265015	     -7.60868357	      2.52945207	     -1.41870937	     16.10140507	     -6.13622765	     32.83923147	     24.53322102	     76.91678628	     13.33497327	     -8.07587076	     25.66578157	     29.50462265	     69.35073203
      0.00416670	     -0.96287199	      0.12871505	     -1.18552004	     -0.95057723	      1.26429111	     -0.03633958	     -4.12811575	      0.86783800	     -1.81323857	      2.60434640	      0.04545442	      3.07468445	    -10.65805153	     -7.09664592	     -4.22454166	     -2.52044015	     -2.81476556	      3.35333807	      0.05852679	      7.21773068	      2.90676106	     -7.09664592	     -7.12586020	      1.96198194	     -1.37872371	     16.17999093	     -6.06349118	     35.29485995	     23.96334054	     78.39793185	     13.82548364	     -7.67578722	     23.91561428	     29.35755237	     71.93668595
      0.00833330	     -1.42388499	      1.00438441	     -1.27413339	     -0.95031642	      1.26317371	     -0.03362810	     -3.95925920	      0.14313313	     -2.83819895	      1.83738661	      0.03206845	      3.32410519	     -9.72036922	     -7.17678836	     -4.12607737	     -1.72205717	     -3.42292031	      2.58443578	      0.04510691	      6.96961169	      4.03478723	     -7.17678836	     -6.63346825	      0.74210113	     -0.92397107	     16.34469955	     -6.30438457	     39.03484690	     23.98821152	     79.10767887	     14.63645297	     -8.68423646	     27.99184642	     28.95771407	     72.42346619
      0.01250000	     -0.95468942	      1.33637992	     -1.18763883	     -0.95064247	      1.26451437	     -0.03424986	     -4.78290553	     -0.28488872	     -3.30260606	      1.34116090	      0.02340767	      3.50797116	     -9.13879578	     -7.27477835	     -5.09263625	     -1.24271240	     -3.45694735	      1.70809911	      0.02981195	      6.58251265	      4.36473964	     -7.27477835	     -7.28757257	      0.29356461	     -0.60238297	     16.68263882	     -6.66167133	     42.16658363	     23.78465022	     78.66969159	     15.46294440	     -9.43139599	     31.99008069	     28.75934149	     72.46462802
      0.01666670	     -0.81234854	      1.48572650	     -1.17926267	     -0.94954283	      1.26816740	     -0.03261197	     -5.19829759	     -0.41114785	     -3.40051228	      0.98965845	      0.01727280	      3.49954853	     -8.89518270	     -7.36869187	     -5.51751734	     -1.01202529	     -3.65805705	      1.23684064	      0.02158694	      6.23912458	      4.64017339	     -7.36869187	     -7.56361925	      0.13714564	     -0.30332842	     16.94969011	     -6.78627558	     44.79373206	     23.25087962	     76.74810429	     16.04353419	     -9.78804045	     35.83413113	     27.94354039	     71.24798604
      0.02083330	     -0.67333717	      1.57112348	     -1.16123147	     -0.95099722	      1.26711722	     -0.03177214	     -5.50516895	     -0.48085895	     -3.46580017	      0.80234667	      0.01400359	      3.79544528	     -8.38640471	     -7.43534324	     -5.68646130	     -0.91126126	     -3.89898291	      1.06970714	      0.01866991	      6.08529587	      4.93550469	     -7.43534324	     -7.81857892	      0.01673565	     -0.03871695	     17.20480028	     -6.72604390	     46.47947141	     22.51748160	     74.36277965	     16.65284098	    -10.02703740	     39.03389055	     27.29980115	     69.77388142
      0.02500000	     -0.51683700	      1.57711449	     -1.11321796	     -0.94941946	      1.26797592	     -0.03120645	     -5.83011003	     -0.47176460	     -3.45203218	      0.66157164	      0.01154660	      3.78217168	     -8.50390017	     -7.46507718	     -5.88365535	     -0.92910910	     -3.85152563	      0.93715046	      0.01635636	      5.82284893	      4.92745470	     -7.46507718	     -8.05829324	     -0.05480749	      0.15999129	     17.36906599	     -6.87725418	     48.08876112	     22.45448638	     73.27111348	     17.37544601	    -10.23001105	     42.46244539	     26.45434833	     68.82789111
      0.02916670	     -0.56727927	      1.56295065	     -1.15167794	     -0.95176330	      1.26703798	     -0.03047742	     -5.79143544	     -0.41032682	     -3.31371957	      0.59143597	      0.01032250	      3.86203120	     -8.65389120	     -7.48402233	     -5.78713590	     -0.95630607	     -4.00400463	      0.88272844	      0.01540652	      5.78731680	      5.08019442	     -7.48402233	     -8.05081877	     -0.10784073	      0.28297170	     17.59178568	     -6.71413280	     48.89882203	     21.85613601	     70.72384407	     17.80926761	    -10.24961365	     44.08014701	     25.70320335	     66.93522145
      0.03333330	     -0.45525224	      1.53767426	     -1.07050173	     -0.95248564	      1.27003544	     -0.03193234	     -5.91466197	     -0.37715786	     -3.29378663	      0.52933136	      0.00923858	      3.71009049	     -8.91664827	     -7.49531502	     -5.80626709	     -1.00040882	     -3.99026844	      0.85870399	      0.01498721	      5.55793537	      5.25123672	     -7.49531502	     -8.32911051	     -0.10369036	      0.36517786	     17.83091102	     -6.91907104	     50.28372115	     21.95796608	     69.62712050	     18.50093010	    -10.39745828	     47.17628223	     25.18810581	     65.92893477
      0.03750000	     -0.44946229	      1.52423899	     -1.07396746	     -0.95041775	      1.26909999	     -0.03357501	     -5.91679137	     -0.39479071	     -3.29511088	      0.56851042	      0.00992238	      3.70924160	     -8.91645975	     -7.49531531	     -5.80685120	     -1.00311774	     -3.99232786	      0.86132061	      0.01503288	      5.55119953	      5.25284677	     -7.49531531	     -8.33533901	     -0.10795825	      0.36635318	     17.83549773	     -6.91722595	     50.28285199	     21.95874682	     69.62732038	     18.50171960	    -10.40076594	     47.17697255	     25.18638664	     65.92895134
      0.04166670	     -0.33723276	      1.52221850	     -0.94306461	     -0.95073563	      1.26892123	     -0.03314062	     -6.11643573	     -0.40198201	     -3.62346668	      0.45038501	      0.00786070	      3.48109624	     -8.97124960	     -7.49538732	     -5.90099118	     -1.00043758	     -4.12805710	      0.82973879	      0.01448167	      5.14202854	      5.49896506	     -7.49538732	     -8.59697359	     -0.07565051	      0.05398341	     18.03284963	     -6.87505420	     50.15773926	     22.02569987	     69.64354099	     18.57267106	    -10.44251144	     47.51571949	     24.90134213	     65.93876209
      0.04583330	     -0.35017991	      1.49000571	     -0.89124383	     -0.95103108	      1.27050073	     -0.03177619	     -6.11437010	     -0.34809871	     -3.73683567	      0.41932023	      0.00731852	      3.30318501	     -8.93214856	     -7.49541006	     -5.86610071	     -1.05273864	     -4.23257108	      0.80230941	      0.01400294	      4.87793808	      5.60962748	     -7.49541006	     -8.63758430	     -0.08708548	     -0.01763391	     18.04277169	     -6.85606823	     50.12614575	     22.06209811	     69.64508208	     18.58803072	    -10.49015925	     47.66105555	     24.80975322	     65.93918222
      0.05000000	     -0.27527909	      1.45655887	     -0.81028080	     -0.95316233	      1.26486824	     -0.03560196	     -6.15072266	     -0.36200731	     -3.84380678	      0.41507553	      0.00724443	      3.06211548	     -9.36834205	     -7.49657628	     -5.90109203	     -1.03601811	     -4.37073074	      0.80350047	      0.01402373	      4.94307938	      5.68702409	     -7.49657628	     -8.79423816	     -0.03627272	      0.15280731	     17.96567070	     -7.13976698	     49.55910889	     22.56099348	     69.35571707	     19.40337126	    -10.40563606	     51.13992850	     23.99869447	     65.03790603
      0.05416670	     -0.28483107	      1.42996578	     -0.78674998	     -0.95166717	      1.26456592	     -0.03442711	     -6.11186790	     -0.33937107	     -3.92865646	      0.42487645	      0.00741549	      3.06065575	     -9.42252303	     -7.49658009	     -5.91991496	     -1.04212818	     -4.42354091	      0.78263520	      0.01365956	      4.95405859	      5.66418617	     -7.49658009	     -8.83042453	     -0.02589022	      0.10279418	     18.01979567	     -7.18646565	     49.53223812	     22.56712996	     69.35089807	     19.41979989	    -10.37619887	     51.14722348	     24.00724357	     65.02549971
      0.05833330	     -0.15094195	      1.34640683	     -0.60901726	     -0.95280840	      1.26319598	     -0.03470469	     -6.23711305	     -0.24589517	     -4.22902470	      0.41618198	      0.00726375	      2.97273536	     -9.50932578	     -7.49711844	     -6.03767971	     -1.14237774	     -4.55705525	      0.78792951	      0.01375196	      5.15777833	      5.81997117	     -7.49711844	     -9.10171413	      0.14547654	     -0.22551716	     18.03762056	     -7.29083137	     48.66015356	     23.26792330	     68.55382653	     19.33178555	    -10.54100112	     50.70342567	     24.51349246	     64.35257945
      0.06250000	     -0.24000138	      1.28386318	     -0.60209736	     -0.95198158	      1.26620754	     -0.03362153	     -6.11796215	     -0.15687647	     -3.93430701	      0.41192866	      0.00718951	      2.75099081	    -10.00025212	     -7.49765052	     -5.95793020	     -1.24621198	     -4.64857149	      0.76267785	      0.01331124	      5.09816816	      5.72484354	     -7.49765052	     -8.96767709	      0.17313594	     -0.20245426	     17.88758833	     -7.28308809	     48.03096240	     23.40276182	     68.52881437	     19.41285976	    -10.47329864	     51.25246252	     24.21646188	     63.55414578
